<?xml version="1.0" encoding="UTF-8"?> <svg xmlns="http://www.w3.org/2000/svg" id="Layer_1" data-name="Layer 1" viewBox="0 0 822.9957 340.123"><defs><style>.cls-1{fill:#fff;}.cls-2{fill:#282828;}.cls-3{fill:#f76517;}</style></defs><path class="cls-1" d="M1017.0315,530.14c5.6993,11.3429,7.8573,24.4565,6.1423,38.4555-5.3116,43.9332-42.1632,73.48-91.6293,73.48-40.3368,0-64.2952-16.821-77.3533-30.9858l-.8855-.9406-3.6521,29.9342H737.6073l.1662-1.2171a112.432,112.432,0,0,1-26.8357,3.2093c-23.6813,0-45.1507-7.3038-61.75-20.9708a108.5881,108.5881,0,0,1-64.9038,20.9708,102.135,102.135,0,0,1-35.7439-6.1974l-.4985,4.2052H361.7961c-40.4476-3.0985-76.3577-22.4092-102.64-51.956-29.2706-33.0331-42.2727-76.6343-36.6842-122.67,11.1211-91.6844,91.7388-163.5046,183.59-163.5046,4.4268,0,8.7975.1662,13.1136.5532h75.583a91.94,91.94,0,0,1,14.22,1.1067l.1108-1.1067H601.05a86.1478,86.1478,0,0,1,17.0973,1.66l.2215-1.66h189.4c23.295,0,43.8228,8.6871,57.7664,24.4014,13.8883,15.6589,19.9739,36.5741,17.2628,58.9279-3.1536,26.3932-17.4843,47.9172-38.3444,60.5327H853.14c15.4371,0,29.657,3.8178,41.554,10.9558a99.119,99.119,0,0,1,49.2445-12.6157c28.5513,0,53.34,9.351,71.7095,27.0572l28.5512,27.555Z" transform="translate(-221.2038 -301.9525)"></path><path class="cls-2" d="M1007.0722,528.9225q10.6229,16.0185,7.8573,38.6767c-4.87,40.2261-37.6257,66.1766-83.385,66.1766-29.9892,0-53.9482-9.5172-71.2116-28.2747l-10.4577-11.3429c-.9956.0554-1.9919.0554-2.9881.1108l-4.5923,37.5146H747.0141l.5532-4.703a101.3483,101.3483,0,0,1-36.63,6.6952c-24.18,0-45.814-8.2447-61.4732-23.5159-17.3742,14.8288-40.06,23.5159-65.1807,23.5159-15.5485,0-30.1-3.4309-42.605-10.0153l-.9962,8.0231H371.1468a144.3239,144.3239,0,0,1-105.7384-49.1895c-27.72-31.207-40.0046-72.4844-34.7477-116.1411,10.4571-86.1512,89.1383-156.2007,175.4006-156.2007,4.316,0,8.6321.1661,12.8373.5531h75.8593a76.6179,76.6179,0,0,1,21.3579,2.9328l.3316-2.9328H601.05a76.4507,76.4507,0,0,1,24.2353,3.8179l.4424-3.8179H807.768c20.9154,0,39.23,7.6912,51.5686,21.6349,12.2288,13.7774,17.6511,32.4241,15.2162,52.3987-4.5369,37.7916-34.416,64.406-73.0373,65.5681l-.4978,4.26H853.14c15.6586,0,29.8785,4.316,41.1663,12.2838,13.556-8.853,30.5985-13.9437,49.6322-13.9437,26.3379,0,49.19,8.5763,65.9555,24.7334l22.8519,22.0218Z" transform="translate(-221.2038 -301.9525)"></path><path class="cls-1" d="M439.5372,344.002H494.75c24.7965,0,36.3167,16.7724,33.88,36.857-2.4153,19.9226-17.9719,36.3654-42.7684,36.3654h-26.78l-4.55,37.5217H426.0987Zm48.4853,24.0724H465.0469l-3.02,24.9046h22.9755c7.6081,0,13.8113-4.8091,14.7191-12.2821C500.645,373.0564,495.6306,368.0744,488.0225,368.0744Z" transform="translate(-221.2038 -301.9525)"></path><path class="cls-1" d="M579.9409,417.2244H565.3947l-4.55,37.5217H532.412L545.85,344.002H601.063c24.4669,0,36.3762,16.27,33.88,36.857-2.34,19.258-15.3243,29.557-26.0177,33.2044l17.545,40.6827H593.9088Zm13.9031-49.15H571.36L568.34,392.979h22.4839c7.4351,0,14.3029-4.8091,15.2269-12.45C606.98,372.8889,601.2792,368.0744,593.844,368.0744Z" transform="translate(-221.2038 -301.9525)"></path><path class="cls-1" d="M655.1463,344.002h80.8359l-2.9233,24.0724H680.6561l-2.237,18.4313h51.2465l-2.94,24.24H675.48l-2.4208,19.928h52.4029l-2.9179,24.0725H641.7079Z" transform="translate(-221.2038 -301.9525)"></path><path class="cls-1" d="M752.5276,344.002H807.74c24.7965,0,36.3167,16.7724,33.88,36.857-2.4153,19.9226-17.9719,36.3654-42.7684,36.3654h-26.78l-4.55,37.5217H739.0892Zm48.4854,24.0724H778.0374l-3.0205,24.9046h22.9755c7.6081,0,13.8113-4.8091,14.7191-12.2821C813.6355,373.0564,808.621,368.0744,801.013,368.0744Z" transform="translate(-221.2038 -301.9525)"></path><path class="cls-1" d="M488.26,554.11h-45.789l-5.398,44.4976H408.64l13.4385-110.7495h28.433l-5.0144,41.3474h45.789l5.0144-41.3474h28.433L511.2952,598.608h-28.433Z" transform="translate(-221.2038 -301.9525)"></path><path class="cls-1" d="M598.21,486.0376c33.7284,0,55.9907,23.5753,51.9057,57.2821-4.09,33.7014-32.08,57.2768-65.8088,57.2768-33.7231,0-56.1529-23.5754-52.0624-57.2768C536.33,509.6129,564.487,486.0376,598.21,486.0376Zm-3.0638,25.2341c-18.3447,0-31.7778,13.9518-33.9716,32.048-2.1776,17.9341,7.8513,32.048,26.196,32.048,18.1881,0,31.6373-14.1139,33.8149-32.048C623.3794,525.2235,613.3343,511.2717,595.1462,511.2717Z" transform="translate(-221.2038 -301.9525)"></path><path class="cls-1" d="M724.8619,486.0376c33.7284,0,55.9961,23.5753,51.9057,57.2821-4.09,33.7014-32.08,57.2768-65.8088,57.2768-33.7231,0-56.1529-23.5754-52.0625-57.2768C662.9868,509.6129,691.1388,486.0376,724.8619,486.0376Zm-3.0638,25.2341c-18.35,0-31.7778,13.9518-33.9716,32.048-2.1776,17.9341,7.8459,32.048,26.196,32.048,18.1881,0,31.6373-14.1139,33.8149-32.048C750.0312,525.2235,739.9862,511.2717,721.7981,511.2717Z" transform="translate(-221.2038 -301.9525)"></path><path class="cls-1" d="M797.9006,487.8585h55.2126c24.7965,0,36.3167,16.7724,33.88,36.8625-2.4153,19.9226-17.9665,36.3653-42.763,36.3653H817.45l-4.5551,37.5217H784.4621Zm48.4853,24.0779H823.41l-3.02,24.9046h22.9755c7.6081,0,13.8113-4.8145,14.7191-12.2875C859.0138,516.9184,853.994,511.9364,846.3859,511.9364Z" transform="translate(-221.2038 -301.9525)"></path><path class="cls-1" d="M902.382,561.578c6.9705,7.97,18.3934,14.611,33.4367,14.611,9.7532,0,16.21-4.15,16.8534-9.4615.7619-6.3058-6.0411-8.8022-17.48-11.2878-17.7342-3.6528-42.628-8.3-39.4453-34.539,2.2586-18.5933,19.9117-34.6956,48.1827-34.6956,17.6855,0,32.4154,5.3062,42.92,15.4377l-18.01,20.4251a45.5941,45.5941,0,0,0-29.6921-11.4608c-9.4236,0-13.5249,3.82-14.1084,8.6348-.7025,5.8141,5.83,7.8026,17.7828,10.1315,17.7234,3.8148,42.2065,9.1318,39.1643,34.2039-2.7017,22.2461-20.8628,37.0192-50.4522,37.0192-22.3163,0-37.0083-6.9705-46.7994-17.5991Z" transform="translate(-221.2038 -301.9525)"></path><path class="cls-3" d="M406.1036,343.9341l-8.9458,73.7216c-33.2,0-58.6734-22.0663-64.2-52.29C354.7612,351.8246,379.9917,343.9341,406.1036,343.9341Z" transform="translate(-221.2038 -301.9525)"></path><path class="cls-3" d="M395.535,431.0293l-4,32.9659H264.9207c6.2539-36.1085,27.1705-68.2386,55.7391-90.1378C328.8518,407.1911,357.9888,431.0293,395.535,431.0293Z" transform="translate(-221.2038 -301.9525)"></path><path class="cls-3" d="M389.9119,477.3687l-4.0043,32.9992c-37.5129,0-72.435,23.8384-88.7462,57.1384-23.2539-21.8991-36.3728-54.029-33.8635-90.1376Z" transform="translate(-221.2038 -301.9525)"></path><path class="cls-3" d="M384.2848,523.7415l-8.9457,73.7216c-26.1119,0-49.4274-7.89-67.9449-21.431C320.2561,545.8078,351.085,523.7415,384.2848,523.7415Z" transform="translate(-221.2038 -301.9525)"></path></svg> 